<?xml version="1.0" encoding="UTF-8"?>
<!DOCTYPE svg PUBLIC "-//W3C//DTD SVG 1.1//EN" "http://www.w3.org/Graphics/SVG/1.1/DTD/svg11.dtd">
<svg xmlns="http://www.w3.org/2000/svg" version="1.1" width="300px" height="300px" style="shape-rendering:geometricPrecision; text-rendering:geometricPrecision; image-rendering:optimizeQuality; fill-rule:evenodd; clip-rule:evenodd" xmlns:xlink="http://www.w3.org/1999/xlink">
<g><path style="opacity:1" fill="#00c63b" d="M 147.5,1.5 C 213.169,3.9076 259.669,34.9076 287,94.5C 309.006,159.932 294.84,216.099 244.5,263C 199.016,298.192 149.016,306.192 94.5,287C 27.7143,255.277 -2.78566,202.444 3,128.5C 15.2848,65.5474 52.1181,24.7141 113.5,6C 124.843,3.43665 136.176,1.93665 147.5,1.5 Z"/></g>
<g><path style="opacity:1" fill="#fefefe" d="M 134.5,95.5 C 146.5,113.167 158.5,130.833 170.5,148.5C 170.783,149.289 171.283,149.956 172,150.5C 172.5,130.169 172.667,109.836 172.5,89.5C 187.167,89.5 201.833,89.5 216.5,89.5C 216.5,129.167 216.5,168.833 216.5,208.5C 201.496,208.667 186.496,208.5 171.5,208C 158.037,187.573 144.204,167.406 130,147.5C 129.5,167.831 129.333,188.164 129.5,208.5C 114.833,208.5 100.167,208.5 85.5,208.5C 85.5,168.833 85.5,129.167 85.5,89.5C 100.504,89.3334 115.504,89.5001 130.5,90C 131.977,91.8121 133.31,93.6455 134.5,95.5 Z"/></g>
<g><path style="opacity:1" fill="#00b707" d="M 134.5,95.5 C 133.31,93.6455 131.977,91.8121 130.5,90C 115.504,89.5001 100.504,89.3334 85.5,89.5C 85.5,129.167 85.5,168.833 85.5,208.5C 84.5005,169.239 84.1672,129.239 84.5,88.5C 100.17,88.3334 115.837,88.5001 131.5,89C 133.633,91.0619 134.633,93.2285 134.5,95.5 Z"/></g>
<g><path style="opacity:1" fill="#00b707" d="M 216.5,208.5 C 216.5,168.833 216.5,129.167 216.5,89.5C 201.833,89.5 187.167,89.5 172.5,89.5C 172.667,109.836 172.5,130.169 172,150.5C 171.283,149.956 170.783,149.289 170.5,148.5C 171.497,128.674 171.83,108.674 171.5,88.5C 186.833,88.5 202.167,88.5 217.5,88.5C 217.833,129.239 217.5,169.239 216.5,208.5 Z"/></g>
</svg>
